<mxfile host="drawio-plugin" modified="2021-07-28T10:05:47.084Z" agent="5.0 (Windows NT 6.2; Win64; x64) AppleWebKit/537.36 (KHTML, like Gecko) Chrome/89.0.4389.114 Safari/537.36" etag="7jVh3FM8Vyra9rhB-wHm" version="14.7.4" type="embed"><diagram id="JT82-aDKg2pI1SJPIhnY" name="Page-1"><mxGraphModel dx="1105" dy="707" grid="1" gridSize="10" guides="1" tooltips="1" connect="1" arrows="1" fold="1" page="1" pageScale="1" pageWidth="827" pageHeight="1169" math="0" shadow="0"><root><mxCell id="0"/><mxCell id="1" parent="0"/><mxCell id="ADC6r7fg-C3wDiLe_lbF-5" style="edgeStyle=orthogonalEdgeStyle;rounded=0;orthogonalLoop=1;jettySize=auto;html=1;exitX=1;exitY=0.5;exitDx=0;exitDy=0;curved=1;strokeColor=#FF6392;fontColor=#5AA9E6;" parent="1" source="ADC6r7fg-C3wDiLe_lbF-1" target="ADC6r7fg-C3wDiLe_lbF-2" edge="1"><mxGeometry relative="1" as="geometry"><Array as="points"><mxPoint x="270" y="230"/><mxPoint x="410" y="230"/><mxPoint x="410" y="240"/><mxPoint x="290" y="240"/></Array></mxGeometry></mxCell><mxCell id="2" style="edgeStyle=orthogonalEdgeStyle;rounded=0;orthogonalLoop=1;jettySize=auto;html=1;" edge="1" parent="1" source="ADC6r7fg-C3wDiLe_lbF-1"><mxGeometry relative="1" as="geometry"><mxPoint x="130" y="20" as="targetPoint"/></mxGeometry></mxCell><mxCell id="ADC6r7fg-C3wDiLe_lbF-1" value="" style="rounded=0;whiteSpace=wrap;html=1;fillColor=#FFE45E;strokeColor=#FF6392;fontColor=#5AA9E6;rotation=-150;" parent="1" vertex="1"><mxGeometry x="50" y="100" width="120" height="60" as="geometry"/></mxCell><mxCell id="ADC6r7fg-C3wDiLe_lbF-2" value="" style="ellipse;whiteSpace=wrap;html=1;fillColor=#FFE45E;strokeColor=#FF6392;fontColor=#5AA9E6;" parent="1" vertex="1"><mxGeometry x="310" y="350" width="120" height="80" as="geometry"/></mxCell><mxCell id="ADC6r7fg-C3wDiLe_lbF-3" value="" style="shape=parallelogram;perimeter=parallelogramPerimeter;whiteSpace=wrap;html=1;fixedSize=1;fillColor=#FFE45E;strokeColor=#FF6392;fontColor=#5AA9E6;" parent="1" vertex="1"><mxGeometry x="420" y="280" width="120" height="60" as="geometry"/></mxCell><mxCell id="ADC6r7fg-C3wDiLe_lbF-6" style="edgeStyle=orthogonalEdgeStyle;curved=1;rounded=0;orthogonalLoop=1;jettySize=auto;html=1;exitX=1;exitY=0.5;exitDx=0;exitDy=0;entryX=0.242;entryY=0.075;entryDx=0;entryDy=0;entryPerimeter=0;strokeColor=#FF6392;fontColor=#5AA9E6;" parent="1" source="ADC6r7fg-C3wDiLe_lbF-4" target="ADC6r7fg-C3wDiLe_lbF-2" edge="1"><mxGeometry relative="1" as="geometry"/></mxCell><mxCell id="ADC6r7fg-C3wDiLe_lbF-4" value="" style="ellipse;whiteSpace=wrap;html=1;direction=west;fillColor=#FFE45E;strokeColor=#FF6392;fontColor=#5AA9E6;" parent="1" vertex="1"><mxGeometry x="464" y="100" width="190" height="120" as="geometry"/></mxCell></root></mxGraphModel></diagram></mxfile>